<?xml version="1.0" encoding="UTF-8" standalone="no"?>
<!-- Created with Inkscape (http://www.inkscape.org/) -->

<svg
   xmlns:dc="http://purl.org/dc/elements/1.1/"
   xmlns:cc="http://creativecommons.org/ns#"
   xmlns:rdf="http://www.w3.org/1999/02/22-rdf-syntax-ns#"
   xmlns:svg="http://www.w3.org/2000/svg"
   xmlns="http://www.w3.org/2000/svg"
   xmlns:sodipodi="http://sodipodi.sourceforge.net/DTD/sodipodi-0.dtd"
   xmlns:inkscape="http://www.inkscape.org/namespaces/inkscape"
   width="264.58334mm"
   height="68.846268mm"
   viewBox="0 0 264.58334 68.846268"
   version="1.1"
   id="svg2390"
   inkscape:version="0.92.2 (5c3e80d, 2017-08-06)"
   sodipodi:docname="Foodmart logo with slogan.svg">
  <defs
     id="defs2384" />
  <sodipodi:namedview
     id="base"
     pagecolor="#ffffff"
     bordercolor="#666666"
     borderopacity="1.0"
     inkscape:pageopacity="0.0"
     inkscape:pageshadow="2"
     inkscape:zoom="1"
     inkscape:cx="555.9056"
     inkscape:cy="-42.436108"
     inkscape:document-units="mm"
     inkscape:current-layer="layer1"
     showgrid="false"
     fit-margin-top="0"
     fit-margin-left="0"
     fit-margin-right="0"
     fit-margin-bottom="0"
     inkscape:window-width="1600"
     inkscape:window-height="837"
     inkscape:window-x="-8"
     inkscape:window-y="-8"
     inkscape:window-maximized="1" />
  <metadata
     id="metadata2387">
    <rdf:RDF>
      <cc:Work
         rdf:about="">
        <dc:format>image/svg+xml</dc:format>
        <dc:type
           rdf:resource="http://purl.org/dc/dcmitype/StillImage" />
        <dc:title></dc:title>
      </cc:Work>
    </rdf:RDF>
  </metadata>
  <g
     inkscape:label="Layer 1"
     inkscape:groupmode="layer"
     id="layer1"
     transform="translate(-79.658545,-37.009181)">
    <g
       id="g3095"
       transform="matrix(7.4074342,0,0,7.4074342,-510.4069,-678.26176)">
      <g
         transform="matrix(0.35277777,0,0,-0.35277777,98.405877,105.27248)"
         id="g182">
        <path
           inkscape:connector-curvature="0"
           id="path184"
           style="fill:#378c42;fill-opacity:1;fill-rule:nonzero;stroke:none"
           d="M 0,0 C 0.795,0 0.924,0.662 0.924,1.539 0.924,2.193 0.795,3.141 0,3.141 -0.739,3.141 -0.854,2.193 -0.854,1.539 -0.854,0.904 -0.739,0 0,0 m 0.023,-0.463 c -1.197,0 -1.515,1.055 -1.515,2.002 0,1.082 0.318,2.065 1.492,2.065 1.223,0 1.562,-0.983 1.562,-2.065 0,-0.863 -0.302,-1.475 -0.467,-1.572 L 1.107,-0.047 1.852,0 v -0.463 z" />
      </g>
      <g
         transform="matrix(0.35277777,0,0,-0.35277777,99.791519,105.22771)"
         id="g186">
        <path
           inkscape:connector-curvature="0"
           id="path188"
           style="fill:#378c42;fill-opacity:1;fill-rule:nonzero;stroke:none"
           d="m 0,0 h -0.012 c -0.085,-0.23 -0.312,-0.654 -0.876,-0.654 -0.636,0 -0.742,0.568 -0.742,0.91 V 2.17 h 0.523 V 0.664 c 0,-0.518 0,-0.797 0.376,-0.797 0.43,0 0.731,0.582 0.731,1.135 V 2.17 H 0.523 V -0.59 H 0 Z" />
      </g>
      <g
         transform="matrix(0.35277777,0,0,-0.35277777,100.72066,104.99964)"
         id="g190">
        <path
           inkscape:connector-curvature="0"
           id="path192"
           style="fill:#378c42;fill-opacity:1;fill-rule:nonzero;stroke:none"
           d="m 0,0 c -0.411,0 -0.821,-0.187 -0.821,-0.541 0,-0.215 0.144,-0.354 0.3,-0.354 0.363,0 0.627,0.411 0.627,0.739 L 0.106,0 Z M 0.106,-0.895 H 0.093 c -0.069,-0.15 -0.29,-0.406 -0.713,-0.406 -0.517,0 -0.783,0.315 -0.783,0.744 0,0.729 0.808,0.903 1.509,0.903 V 0.83 C 0.058,1.096 -0.12,1.182 -0.318,1.182 -0.633,1.182 -0.759,0.979 -0.759,0.758 H -1.31 c 0,0.441 0.26,0.832 1.032,0.832 0.906,0 0.906,-0.68 0.906,-0.93 V -1.236 H 0.106 Z" />
      </g>
      <path
         inkscape:connector-curvature="0"
         id="path194"
         style="fill:#378c42;fill-opacity:1;fill-rule:nonzero;stroke:none;stroke-width:0.35277775"
         d="m 101.25653,104.02319 h 0.18486 v 1.41252 h -0.18486 z" />
      <path
         inkscape:connector-curvature="0"
         id="path196"
         style="fill:#378c42;fill-opacity:1;fill-rule:nonzero;stroke:none;stroke-width:0.35277775"
         d="m 101.78746,104.4624 h 0.1838 v 0.97367 h -0.1838 z m -0.0183,-0.43921 H 101.99 v 0.20885 h -0.22084 z" />
      <g
         transform="matrix(0.35277777,0,0,-0.35277777,102.81458,105.44406)"
         id="g198">
        <path
           inkscape:connector-curvature="0"
           id="path200"
           style="fill:#378c42;fill-opacity:1;fill-rule:nonzero;stroke:none"
           d="m 0,0 c -0.133,-0.029 -0.272,-0.041 -0.411,-0.041 -0.666,0 -0.829,0.295 -0.829,0.67 V 2.377 H -1.736 V 2.783 H -1.24 V 3.436 L -0.719,3.76 V 2.783 H 0.047 V 2.377 H -0.719 V 0.904 c 0,-0.248 0.035,-0.539 0.441,-0.539 0.092,0 0.205,0.018 0.278,0.041 z" />
      </g>
      <g
         transform="matrix(0.35277777,0,0,-0.35277777,103.24281,105.44269)"
         id="g202">
        <path
           inkscape:connector-curvature="0"
           id="path204"
           style="fill:#378c42;fill-opacity:1;fill-rule:nonzero;stroke:none"
           d="m 0,0 -1.048,2.779 h 0.579 L 0.253,0.785 H 0.267 L 0.916,2.779 H 1.497 L 0.123,-1.17 h -0.512 z" />
      </g>
      <g
         transform="matrix(0.35277777,0,0,-0.35277777,104.75796,105.44269)"
         id="g206">
        <path
           inkscape:connector-curvature="0"
           id="path208"
           style="fill:#378c42;fill-opacity:1;fill-rule:nonzero;stroke:none"
           d="m 0,0 -1.051,2.779 h 0.58 L 0.254,0.785 h 0.012 l 0.65,1.994 h 0.58 L 0.118,-1.17 h -0.51 z" />
      </g>
      <g
         transform="matrix(0.35277777,0,0,-0.35277777,105.80387,105.31521)"
         id="g210">
        <path
           inkscape:connector-curvature="0"
           id="path212"
           style="fill:#378c42;fill-opacity:1;fill-rule:nonzero;stroke:none"
           d="M 0,0 C 0.56,0 0.64,0.598 0.64,1.039 0.64,1.484 0.56,2.076 0,2.076 -0.577,2.076 -0.645,1.484 -0.645,1.039 -0.645,0.598 -0.577,0 0,0 m -1.224,1.039 c 0,0.879 0.386,1.445 1.224,1.445 0.827,0 1.217,-0.566 1.217,-1.445 0,-0.873 -0.39,-1.445 -1.217,-1.445 -0.838,0 -1.224,0.572 -1.224,1.445" />
      </g>
      <g
         transform="matrix(0.35277777,0,0,-0.35277777,107.02932,105.22771)"
         id="g214">
        <path
           inkscape:connector-curvature="0"
           id="path216"
           style="fill:#378c42;fill-opacity:1;fill-rule:nonzero;stroke:none"
           d="m 0,0 h -0.011 c -0.089,-0.23 -0.311,-0.654 -0.876,-0.654 -0.639,0 -0.744,0.568 -0.744,0.91 V 2.17 h 0.525 V 0.664 c 0,-0.518 0,-0.797 0.374,-0.797 C -0.303,-0.133 0,0.449 0,1.002 V 2.17 H 0.524 V -0.59 H 0 Z" />
      </g>
      <g
         transform="matrix(0.35277777,0,0,-0.35277777,108.80869,105.42131)"
         id="g218">
        <path
           inkscape:connector-curvature="0"
           id="path220"
           style="fill:#378c42;fill-opacity:1;fill-rule:nonzero;stroke:none"
           d="m 0,0 c -0.203,-0.064 -0.442,-0.105 -0.768,-0.105 -1.054,0 -1.351,0.859 -1.351,1.544 0,0.77 0.353,1.346 1.179,1.346 0.783,0 0.985,-0.512 0.985,-0.965 h -0.596 c 0,0.211 -0.042,0.557 -0.426,0.557 -0.341,0 -0.56,-0.328 -0.56,-0.842 0,-0.547 0.225,-1.234 1.095,-1.234 0.145,0 0.292,0.01 0.442,0.058 z" />
      </g>
      <g
         transform="matrix(0.35277777,0,0,-0.35277777,109.4371,104.99964)"
         id="g222">
        <path
           inkscape:connector-curvature="0"
           id="path224"
           style="fill:#378c42;fill-opacity:1;fill-rule:nonzero;stroke:none"
           d="m 0,0 c -0.412,0 -0.825,-0.187 -0.825,-0.541 0,-0.215 0.145,-0.354 0.303,-0.354 0.358,0 0.626,0.411 0.626,0.739 L 0.104,0 Z M 0.104,-0.895 H 0.091 c -0.069,-0.15 -0.286,-0.406 -0.713,-0.406 -0.515,0 -0.785,0.315 -0.785,0.744 0,0.729 0.809,0.903 1.511,0.903 V 0.83 c -0.047,0.266 -0.226,0.352 -0.422,0.352 -0.315,0 -0.444,-0.203 -0.444,-0.424 h -0.55 c 0,0.441 0.261,0.832 1.033,0.832 0.905,0 0.905,-0.68 0.905,-0.93 V -1.236 H 0.104 Z" />
      </g>
      <g
         transform="matrix(0.35277777,0,0,-0.35277777,109.95282,104.46222)"
         id="g226">
        <path
           inkscape:connector-curvature="0"
           id="path228"
           style="fill:#378c42;fill-opacity:1;fill-rule:nonzero;stroke:none"
           d="m 0,0 h 0.522 v -0.588 h 0.011 c 0.093,0.229 0.315,0.654 0.876,0.654 0.638,0 0.742,-0.57 0.742,-0.912 V -2.76 h -0.52 v 1.508 c 0,0.51 0,0.795 -0.377,0.795 -0.429,0 -0.732,-0.58 -0.732,-1.133 V -2.76 H 0 Z" />
      </g>
      <g
         transform="matrix(0.35277777,0,0,-0.35277777,112.13874,105.44406)"
         id="g230">
        <path
           inkscape:connector-curvature="0"
           id="path232"
           style="fill:#378c42;fill-opacity:1;fill-rule:nonzero;stroke:none"
           d="m 0,0 c -0.133,-0.029 -0.271,-0.041 -0.408,-0.041 -0.673,0 -0.832,0.295 -0.832,0.67 V 2.377 H -1.733 V 2.783 H -1.24 V 3.436 L -0.72,3.76 V 2.783 H 0.046 V 2.377 H -0.72 V 0.904 c 0,-0.248 0.035,-0.539 0.443,-0.539 0.092,0 0.201,0.018 0.277,0.041 z" />
      </g>
      <g
         transform="matrix(0.35277777,0,0,-0.35277777,112.3413,104.46222)"
         id="g234">
        <path
           inkscape:connector-curvature="0"
           id="path236"
           style="fill:#378c42;fill-opacity:1;fill-rule:nonzero;stroke:none"
           d="m 0,0 h 0.523 v -0.557 h 0.013 c 0.074,0.223 0.307,0.623 0.851,0.623 v -0.57 c -0.469,0 -0.864,-0.238 -0.864,-1.086 V -2.76 H 0 Z" />
      </g>
      <g
         transform="matrix(0.35277777,0,0,-0.35277777,113.58876,105.22771)"
         id="g238">
        <path
           inkscape:connector-curvature="0"
           id="path240"
           style="fill:#378c42;fill-opacity:1;fill-rule:nonzero;stroke:none"
           d="m 0,0 h -0.013 c -0.088,-0.23 -0.314,-0.654 -0.878,-0.654 -0.635,0 -0.74,0.568 -0.74,0.91 V 2.17 H -1.11 V 0.664 c 0,-0.518 0,-0.797 0.379,-0.797 C -0.302,-0.133 0,0.449 0,1.002 V 2.17 H 0.52 V -0.59 H 0 Z" />
      </g>
      <g
         transform="matrix(0.35277777,0,0,-0.35277777,114.41352,104.87423)"
         id="g242">
        <path
           inkscape:connector-curvature="0"
           id="path244"
           style="fill:#378c42;fill-opacity:1;fill-rule:nonzero;stroke:none"
           d="m 0,0 c 0.29,-0.184 0.637,-0.363 0.637,-0.82 0,-0.58 -0.418,-0.836 -1.039,-0.836 -0.377,0 -0.62,0.076 -0.744,0.107 v 0.461 c 0.053,-0.023 0.407,-0.162 0.698,-0.162 0.249,0 0.562,0.068 0.562,0.354 0,0.209 -0.254,0.326 -0.439,0.447 l -0.268,0.162 c -0.25,0.156 -0.553,0.342 -0.553,0.748 0,0.5 0.407,0.773 0.982,0.773 0.278,0 0.495,-0.076 0.626,-0.101 V 0.664 c -0.075,0.035 -0.329,0.162 -0.631,0.162 -0.227,0 -0.451,-0.121 -0.451,-0.293 0,-0.193 0.218,-0.299 0.398,-0.408 z" />
      </g>
      <g
         transform="matrix(0.35277777,0,0,-0.35277777,115.36094,105.44406)"
         id="g246">
        <path
           inkscape:connector-curvature="0"
           id="path248"
           style="fill:#378c42;fill-opacity:1;fill-rule:nonzero;stroke:none"
           d="m 0,0 c -0.133,-0.029 -0.272,-0.041 -0.411,-0.041 -0.665,0 -0.831,0.295 -0.831,0.67 v 1.748 h -0.493 v 0.406 h 0.493 V 3.436 L -0.721,3.76 V 2.783 H 0.046 V 2.377 H -0.721 V 0.904 c 0,-0.248 0.035,-0.539 0.443,-0.539 0.092,0 0.203,0.018 0.278,0.041 z" />
      </g>
      <g
         transform="matrix(0.35277777,0,0,-0.35277777,84.939009,96.697654)"
         id="g250">
        <path
           inkscape:connector-curvature="0"
           id="path252"
           style="fill:#378c42;fill-opacity:1;fill-rule:nonzero;stroke:none"
           d="M 0,0 C -0.004,0.006 -0.018,0.02 -0.035,0.039 -0.023,0.025 -0.006,0.008 0,0 m 2.396,-2.377 c -0.763,1.047 -1.682,1.971 -2.451,2.438 0.992,-0.817 1.834,-2.258 1.485,-5.436 -0.819,-7.418 -6.703,-9.293 -6.703,-9.293 7.953,1.793 8.039,10.043 7.811,10.83 0.54,-1.234 1.825,-5.592 -0.997,-9.392 -2.146,-2.889 -6.264,-4.366 -9.629,-2.95 0,0 -2.044,0.938 -2.381,2.434 2.746,0.668 4.385,2.305 5.102,5.746 0.686,3.285 2.217,5.223 5.104,6.486 0,0 -2.701,2.457 -7.309,1.784 -3.785,-0.555 -8.821,-4.879 -7.019,-11.393 0,0 0.273,9.195 9.57,9.477 -1.594,-0.284 -3.183,-0.995 -4.578,-2.141 -0.337,-0.277 -0.653,-0.574 -0.947,-0.883 -0.016,-0.014 -0.026,-0.031 -0.042,-0.045 -0.016,-0.015 -0.03,-0.031 -0.044,-0.049 -0.383,-0.4 -0.75,-0.849 -1.087,-1.361 -0.238,-0.359 -0.466,-0.787 -0.666,-1.264 -0.888,-1.957 -1.061,-4.093 -0.444,-5.986 0.13,-0.432 0.301,-0.859 0.524,-1.27 0.074,-0.126 0.214,-0.341 0.412,-0.601 0.097,-0.141 0.202,-0.279 0.31,-0.412 1.934,-2.35 5.313,-3.139 8.381,-2.328 1.185,0.297 2.306,0.838 3.331,1.59 0.169,0.125 0.34,0.251 0.505,0.386 0.663,0.547 1.234,1.153 1.719,1.803 0.057,0.07 0.112,0.143 0.165,0.215 2.503,3.449 2.146,8.515 -0.122,11.615" />
      </g>
      <g
         transform="matrix(0.35277777,0,0,-0.35277777,93.077381,99.559837)"
         id="g254">
        <path
           inkscape:connector-curvature="0"
           id="path256"
           style="fill:#f89420;fill-opacity:1;fill-rule:nonzero;stroke:none"
           d="m 0,0 v -7.559 c 0,-0.894 -1.042,-1.984 -2.263,-1.984 -1.215,0 -2.259,1.09 -2.259,1.984 V 0 c 0,0.893 1.044,1.986 2.259,1.986 C -1.042,1.986 0,0.893 0,0 m -2.263,2.721 c -2.237,0 -4.202,-1.508 -4.202,-3.229 v -6.545 c 0,-1.718 1.965,-3.226 4.202,-3.226 2.241,0 4.205,1.508 4.205,3.226 v 6.545 c 0,1.721 -1.964,3.229 -4.205,3.229" />
      </g>
      <g
         transform="matrix(0.35277777,0,0,-0.35277777,96.631653,99.559837)"
         id="g258">
        <path
           inkscape:connector-curvature="0"
           id="path260"
           style="fill:#f89420;fill-opacity:1;fill-rule:nonzero;stroke:none"
           d="m 0,0 v -7.559 c 0,-0.894 -1.043,-1.984 -2.26,-1.984 -1.219,0 -2.26,1.09 -2.26,1.984 V 0 c 0,0.893 1.041,1.986 2.26,1.986 C -1.043,1.986 0,0.893 0,0 m -2.26,2.721 c -2.24,0 -4.203,-1.508 -4.203,-3.229 v -6.545 c 0,-1.718 1.963,-3.226 4.203,-3.226 2.239,0 4.202,1.508 4.202,3.226 v 6.545 c 0,1.721 -1.963,3.229 -4.202,3.229" />
      </g>
      <g
         transform="matrix(0.35277777,0,0,-0.35277777,105.25337,98.586964)"
         id="g262">
        <path
           inkscape:connector-curvature="0"
           id="path264"
           style="fill:#f89420;fill-opacity:1;fill-rule:nonzero;stroke:none"
           d="M 0,0 C -1.266,0 -2.434,-0.402 -3.236,-1.1 -4.041,-0.402 -5.209,0 -6.473,0 c -2.241,0 -4.205,-1.508 -4.205,-3.23 v -9.567 h 1.944 v 10.076 c 0,0.893 1.043,1.985 2.261,1.985 1.217,0 2.259,-1.092 2.259,-1.985 v -10.076 h 1.943 l 0.008,0.125 v 9.951 c 0,0.893 1.047,1.985 2.263,1.985 1.218,0 2.262,-1.092 2.262,-1.985 v -10.076 h 1.94 V -3.23 C 4.202,-1.508 2.24,0 0,0" />
      </g>
      <g
         transform="matrix(0.35277777,0,0,-0.35277777,112.32889,98.587626)"
         id="g266">
        <path
           inkscape:connector-curvature="0"
           id="path268"
           style="fill:#f89420;fill-opacity:1;fill-rule:nonzero;stroke:none"
           d="m 0,0 c -2.22,-0.016 -4.166,-1.521 -4.166,-3.229 v -9.566 h 1.942 v 10.076 c 0,0.875 1.029,1.723 2.228,1.744 l 0.642,0.002 v 0.975 z" />
      </g>
      <g
         transform="matrix(0.35277777,0,0,-0.35277777,100.19598,99.559837)"
         id="g270">
        <path
           inkscape:connector-curvature="0"
           id="path272"
           style="fill:#f89420;fill-opacity:1;fill-rule:nonzero;stroke:none"
           d="m 0,0 c 0,0.893 -1.044,1.986 -2.261,1.986 -1.218,0 -2.26,-1.093 -2.26,-1.986 v -7.559 c 0,-0.894 1.042,-1.984 2.26,-1.984 1.217,0 2.261,1.09 2.261,1.984 z m -2.261,2.721 c 0.841,0 1.646,-0.213 2.315,-0.571 V 8.459 H 1.952 V -10.023 H 0.054 v 0.314 c -0.669,-0.357 -1.474,-0.57 -2.315,-0.57 -2.239,0 -4.203,1.508 -4.203,3.226 v 6.545 c 0,1.721 1.964,3.229 4.203,3.229" />
      </g>
      <g
         transform="matrix(0.35277777,0,0,-0.35277777,88.043736,98.580747)"
         id="g274">
        <path
           inkscape:connector-curvature="0"
           id="path276"
           style="fill:#f89420;fill-opacity:1;fill-rule:nonzero;stroke:none"
           d="m 0,0 h 2.031 v 2.643 c 0,2.084 1.432,3.023 4.166,3.023 H 7.101 V 4.771 L 6.202,4.77 C 4.717,4.77 3.973,3.764 3.973,2.641 V 0 h 2.15 V -0.994 H 5.93 3.973 v -11.82 H 2.031 v 11.82 H 0.151 0 Z" />
      </g>
      <g
         transform="matrix(0.35277777,0,0,-0.35277777,113.62527,98.580747)"
         id="g278">
        <path
           inkscape:connector-curvature="0"
           id="path280"
           style="fill:#f89420;fill-opacity:1;fill-rule:nonzero;stroke:none"
           d="M 0,0 V 3.654 H 1.818 1.944 V 0 H 3.997 V -0.994 H 1.944 v -9.305 c 0,-0.877 1.027,-1.963 2.226,-1.982 l 0.714,-0.002 v -0.737 l -0.716,0.004 C 1.948,-13.002 0,-11.494 0,-9.791 v 8.797 H -2.056 L -2.075,0 Z" />
      </g>
      <g
         transform="matrix(0.35277777,0,0,-0.35277777,109.56833,102.22636)"
         id="g282">
        <path
           inkscape:connector-curvature="0"
           id="path284"
           style="fill:#f89420;fill-opacity:1;fill-rule:nonzero;stroke:none"
           d="m 0,0 c 0,-0.324 -0.136,-0.674 -0.386,-1.01 l -0.03,-0.035 C -0.83,-1.57 -1.512,-1.984 -2.262,-1.984 -3.479,-1.984 -4.52,-0.895 -4.52,0 v 4.043 c 0,0.893 1.041,1.982 2.258,1.982 C -1.042,6.025 0,4.936 0,4.043 Z m 1.969,7.086 c 0,0.191 -0.021,0.379 -0.067,0.562 -0.356,1.483 -2.137,2.686 -4.137,2.686 -1.193,0 -2.265,-0.268 -3.084,-1.088 L -4.68,8.721 c 0.525,0.509 1.135,0.859 2.161,0.859 1.346,0 2.547,-1.16 2.547,-2.072 V 6.207 c -0.666,0.348 -1.459,0.555 -2.29,0.555 -2.04,0 -4.201,-1.469 -4.201,-3.227 V 0.506 c 0,-1.936 2.161,-3.227 4.201,-3.227 0.822,0 1.602,0.201 2.265,0.541 v -0.285 h 1.97 v 5.231 z" />
      </g>
    </g>
  </g>
</svg>
